# xmcd
#
# Track frame offsets:
#	150
#	25981
#	39158
#	56056
#	68900
#	82776
#	101297
#	124223
#	135066
#	148498
#	181921
#	212456
#	223782
#	234648
#	245416
#	260963
#
# Disc length: 3603
#
# Revision: 1
# Processed by: cddbd v1.5.1PL0 Copyright (c) Steve Scherf et al.
# Submitted via: CDex 1.51
# Normalized: r0:TDELIM( - )
#
DISCID=e40e1110
DTITLE=Various Artist - Jazz and Blues Club 2
DYEAR=1900
DGENRE=Jazz
TTITLE0=Miles Davis - Out of the Blue
TTITLE1=Billie Holiday - Summertime
TTITLE2=Mel Torme - It's a Blue World
TTITLE3=Nat King Cole - (Get Your Kicks On) Route 66
TTITLE4=Nina Simone - Central Park Blues
TTITLE5=Robert Gray - The Score
TTITLE6=Dizzy Gillespie - Long, Long Summer
TTITLE7=Dinah Washington - Good Daddy Blues
TTITLE8=Bessie Smith - Nobody Knows When you're Down and Out
TTITLE9=BB King - Ain't Nobody Home
TTITLE10=Jimmy Witherspoon - Ain't Nobody's Business
TTITLE11=Elmore James - Shake your Moneymaker
TTITLE12=John Lee Hooker - No Shoes
TTITLE13=Jimmy Reed - Baby, What do you want me to do?
TTITLE14=Albert King - Born Under a Bad Sign
TTITLE15=Memphis Slim - Rockin' the House
EXTD=
EXTT0=
EXTT1=
EXTT2=
EXTT3=
EXTT4=
EXTT5=
EXTT6=
EXTT7=
EXTT8=
EXTT9=
EXTT10=
EXTT11=
EXTT12=
EXTT13=
EXTT14=
EXTT15=
PLAYORDER=
